<?xml version="1.0" encoding="UTF-8"?>
<!DOCTYPE svg PUBLIC "-//W3C//DTD SVG 1.1//EN" "http://www.w3.org/Graphics/SVG/1.1/DTD/svg11.dtd">
<svg xmlns="http://www.w3.org/2000/svg" version="1.1" width="842px" height="456px" style="shape-rendering:geometricPrecision; text-rendering:geometricPrecision; image-rendering:optimizeQuality; fill-rule:evenodd; clip-rule:evenodd" xmlns:xlink="http://www.w3.org/1999/xlink">
<g><path style="opacity:0.987" fill="#00010a" d="M 174.5,-0.5 C 394.167,-0.5 613.833,-0.5 833.5,-0.5C 836.886,0.527658 839.552,2.52766 841.5,5.5C 841.5,21.8333 841.5,38.1667 841.5,54.5C 839.362,109.989 829.862,164.322 813,217.5C 785.467,297.852 736.634,361.852 666.5,409.5C 665.679,422.834 664.846,436.168 664,449.5C 662.057,452.878 659.224,454.878 655.5,455.5C 554.167,455.5 452.833,455.5 351.5,455.5C 347.699,454.55 344.866,452.216 343,448.5C 342.792,435.454 341.958,422.454 340.5,409.5C 323.154,397.661 306.821,384.494 291.5,370C 284.015,371.86 276.349,373.027 268.5,373.5C 264.111,373.455 259.777,372.955 255.5,372C 241.79,366.965 227.623,364.465 213,364.5C 193.515,365.812 174.015,366.812 154.5,367.5C 97.9013,369.948 53.4013,348.281 21,302.5C 9.82587,284.179 2.6592,264.512 -0.5,243.5C -0.5,232.167 -0.5,220.833 -0.5,209.5C 10.1595,145.733 46.8262,105.567 109.5,89C 129.211,85.5685 148.878,85.7351 168.5,89.5C 165.941,61.5563 165.107,33.5563 166,5.5C 167.943,2.12205 170.776,0.122045 174.5,-0.5 Z M 136.5,152.5 C 148.838,151.49 160.838,152.99 172.5,157C 174.664,157.914 176.664,159.081 178.5,160.5C 189.104,211.186 208.104,258.353 235.5,302C 227.514,301.632 219.514,300.966 211.5,300C 189.833,299.667 168.167,299.333 146.5,299C 114.745,295.22 91.9118,279.053 78,250.5C 67.3367,220.324 73.17,193.824 95.5,171C 107.87,161.827 121.537,155.66 136.5,152.5 Z"/></g>
<g><path style="opacity:1" fill="#1691f6" d="M 184.5,19.5 C 397.167,19.5 609.833,19.5 822.5,19.5C 823.595,77.5853 816.428,134.585 801,190.5C 775.084,278.719 724.084,348.385 648,399.5C 647.138,401.087 646.471,402.754 646,404.5C 645.5,414.828 645.334,425.161 645.5,435.5C 550.833,435.5 456.167,435.5 361.5,435.5C 361.957,423.732 361.457,412.065 360,400.5C 345.191,389.031 330.357,377.531 315.5,366C 264.859,320.928 229.692,265.761 210,200.5C 193.232,141.356 184.732,81.0225 184.5,19.5 Z"/></g>
<g><path style="opacity:1" fill="#fefefe" d="M 508.5,75.5 C 534.629,77.4814 556.462,88.1481 574,107.5C 608.074,149.493 619.407,197.159 608,250.5C 601.777,280.005 587.944,305.172 566.5,326C 555.963,335.021 544.129,341.854 531,346.5C 525.791,345.789 523.291,342.789 523.5,337.5C 539.133,297.66 541.633,256.994 531,215.5C 520.787,186.194 511.787,156.527 504,126.5C 500.906,113.272 498.906,99.9388 498,86.5C 500.357,81.6455 503.857,77.9788 508.5,75.5 Z"/></g>
<g><path style="opacity:1" fill="#fefefe" d="M 458.5,87.5 C 465.026,87.1784 469.86,89.845 473,95.5C 472.636,107.153 472.136,118.819 471.5,130.5C 472.067,148.705 474.233,166.705 478,184.5C 486.069,209.108 492.402,234.108 497,259.5C 500.205,287.193 500.205,314.859 497,342.5C 491.368,348.769 484.535,350.269 476.5,347C 445.111,333.945 422.611,311.778 409,280.5C 387.977,227.493 391.31,176.159 419,126.5C 429.404,110.595 442.571,97.5951 458.5,87.5 Z"/></g>
<g><path style="opacity:1" fill="#158ff3" d="M 126.5,105.5 C 141.525,104.352 156.191,106.018 170.5,110.5C 172.857,119.001 174.191,127.668 174.5,136.5C 138.121,127.636 105.954,135.636 78,160.5C 51.4602,191.944 46.4602,226.61 63,264.5C 80.9844,295.458 107.818,313.292 143.5,318C 165.833,318.333 188.167,318.667 210.5,319C 223.255,320.511 235.922,322.511 248.5,325C 251.548,325.606 254.048,327.106 256,329.5C 261.96,337.128 268.293,344.462 275,351.5C 275.667,352.167 275.667,352.833 275,353.5C 270.921,354.629 266.755,354.796 262.5,354C 249.676,348.838 236.343,346.171 222.5,346C 198.646,345.964 174.812,346.797 151,348.5C 101.612,349.654 63.2788,329.988 36,289.5C 12.0141,245.777 12.6808,202.444 38,159.5C 59.5033,128.334 89.0033,110.334 126.5,105.5 Z"/></g>
</svg>
